<svg xmlns="http://www.w3.org/2000/svg" viewBox="0 0 27.67 27.67"><defs><style>.cls-1{fill:none;stroke:#000;stroke-miterlimit:10;}</style></defs><title>Ресурс 1</title><g id="Слой_2" data-name="Слой 2"><g id="Слой_1-2" data-name="Слой 1"><path d="M8.33,14.5l.51.44a5.38,5.38,0,0,0,2.24,1.21,2.06,2.06,0,0,0,1.74-.32,3.85,3.85,0,0,0,1-1.26A4.56,4.56,0,0,0,15.49,16c.11.06.24.1.35.15a1.61,1.61,0,0,0,1.55-.09A6,6,0,0,0,19,14.75a.94.94,0,0,1,.25-.23v.21c0,1.32-.17,4.85-.25,5.75a2.47,2.47,0,0,1-.84,1.58c-.57.59-1.1,1.23-1.65,1.85a9,9,0,0,1-1.62,1.53,2.86,2.86,0,0,1-1.22.54.51.51,0,0,1-.42-.08c-.4-.33-.82-.64-1.19-1A34.06,34.06,0,0,1,9.31,22a2,2,0,0,1-.4-.85,10.82,10.82,0,0,1-.43-2.51c-.07-2.22-.1-1-.15-3.19C8.32,15.13,8.33,14.82,8.33,14.5ZM13.8,17c-.27,0-1,0-1.47.12a2.57,2.57,0,0,0-.59.2c-.14.07-.14.19,0,.27a1.4,1.4,0,0,0,.38.16,7.79,7.79,0,0,0,3.33,0,1.42,1.42,0,0,0,.4-.17c.12-.07.12-.17,0-.25a1,1,0,0,0-.25-.12A5.56,5.56,0,0,0,13.8,17Z"/><path d="M7.73,8.8c-.07-.5-.17-1-.22-1.45a10.63,10.63,0,0,1-.07-2.46A2.87,2.87,0,0,1,7.6,4.2c.07-.18.19-.19.3,0a3.3,3.3,0,0,1,.31.51c.16.27.29.56.46.83A1.42,1.42,0,0,1,8.86,6.6a9,9,0,0,1-.58,2.11s0,0,0,.07h1c.78,0,1.32.09,2.1.15a2.74,2.74,0,0,1,.73.25,5,5,0,0,0,1.3.55,1.55,1.55,0,0,0,1.21-.15,2.09,2.09,0,0,0,.29-.16A2.52,2.52,0,0,1,16.2,9a21.16,21.16,0,0,1,4.43-.1l.74.1a.13.13,0,0,1,.1.1,19.61,19.61,0,0,1-.15,2.17A3.23,3.23,0,0,1,18.67,14a4.2,4.2,0,0,1-2.73-.2,2,2,0,0,1-1.14-1.29c-.09-.34-.15-.68-.24-1a2.66,2.66,0,0,0-.2-.56.53.53,0,0,0-.51-.31.69.69,0,0,0-.75.54,5.11,5.11,0,0,0-.2.86,2.13,2.13,0,0,1-1.63,1.89,4.08,4.08,0,0,1-3.21-.29,3.18,3.18,0,0,1-1.72-2.34,5.92,5.92,0,0,1-.07-2.1c.06-.38.06-.38.44-.39Z"/><path d="M20.14,8.06c0,.1,0,.26-.05.42a.2.2,0,0,1-.1.12.19.19,0,0,1-.11-.09c-.14-.2-.26-.42-.42-.62a4.81,4.81,0,0,0-1.32-1.1,1.19,1.19,0,0,0-.55-.18A10,10,0,0,0,15,6.86a3,3,0,0,0-.52.2,8,8,0,0,1-2.16.75,2.92,2.92,0,0,1-2.2-.51,2.41,2.41,0,0,1-.83-1.18q-.4-1-.78-2.07a3,3,0,0,1-.16-.66,1.17,1.17,0,0,1,.44-1.1,1.92,1.92,0,0,1,1.84-.55,2.23,2.23,0,0,1,.69.38c.23.15.43.36.66.5a1.78,1.78,0,0,0,1.66.15,2.45,2.45,0,0,1,1.46-.17,5.22,5.22,0,0,1,.75.28c.86.35,1.71.73,2.59,1.05A1.8,1.8,0,0,1,19.7,5.31,17.16,17.16,0,0,1,20.14,8.06Z"/><circle class="cls-1" cx="13.84" cy="13.84" r="13.34"/></g></g></svg>