<svg xmlns="http://www.w3.org/2000/svg" viewBox="0 0 27.6 27.6"><defs><style>.cls-1{fill:none;stroke:#fff;stroke-miterlimit:10;}.cls-2{fill:#fff;}</style></defs><title>Ресурс 1</title><g id="Слой_2" data-name="Слой 2"><g id="Слой_1-2" data-name="Слой 1"><g id="Слой_2-2" data-name="Слой 2"><g id="Слой_1-2-2" data-name="Слой 1-2"><circle class="cls-1" cx="13.8" cy="13.8" r="13.3"/><path class="cls-2" d="M8.3,14.5l.5.4A4.77,4.77,0,0,0,11,16.1a2,2,0,0,0,1.7-.3,3.25,3.25,0,0,0,1-1.3,3.91,3.91,0,0,0,1.7,1.4,3,3,0,0,0,1.9,0,5.09,5.09,0,0,0,1.6-1.3c.1-.1.2-.2.3-.2v.2c0,1.3-.2,4.8-.3,5.7a3,3,0,0,1-.8,1.6,14.62,14.62,0,0,0-1.6,1.9,7.52,7.52,0,0,1-1.6,1.5,2.08,2.08,0,0,1-1.2.5.6.6,0,0,1-.4-.1,10.59,10.59,0,0,1-1.2-1,24.43,24.43,0,0,1-2.7-2.9,1.88,1.88,0,0,1-.4-.9,10.86,10.86,0,0,1-.4-2.5C8.5,16.2,8.3,14.8,8.3,14.5Zm5.47,2.59a13.18,13.18,0,0,0-2.07.21.19.19,0,0,0,0,.3c.1.1.2.1.4.2a9.15,9.15,0,0,0,3.3,0,.76.76,0,0,0,.4-.2.19.19,0,0,0,0-.3A8.93,8.93,0,0,0,13.77,17.09Z"/><path class="cls-2" d="M7.7,8.8a7.84,7.84,0,0,1-.2-1.4,21.75,21.75,0,0,1-.1-2.5,1.85,1.85,0,0,1,.2-.7q.15-.3.3,0c.1.2.2.3.3.5a5.58,5.58,0,0,0,.5.8,1.39,1.39,0,0,1,.2,1.1,8.3,8.3,0,0,1-.6,2.1v.1h1c.8,0,1.3.1,2.1.1a.91.91,0,0,1,.7.3c.4.2.8.4,1.3.6a1.55,1.55,0,0,0,1.16,0c.1,0,.24-.19.34-.29A2.11,2.11,0,0,1,16.2,9a21.74,21.74,0,0,1,4.4-.1l.8.1c.1,0,.1,0,.1.1,0,.7-.1,1.4-.1,2.2A3.18,3.18,0,0,1,18.7,14a4.15,4.15,0,0,1-2.7-.2,1.63,1.63,0,0,1-1.1-1.3c-.1-.3-.1-.7-.2-1a1.42,1.42,0,0,0-.2-.6.55.55,0,0,0-.5-.3.79.79,0,0,0-.8.5,2.92,2.92,0,0,0-.2.9,2.13,2.13,0,0,1-1.6,1.9,4.42,4.42,0,0,1-3.2-.3,3.07,3.07,0,0,1-1.7-2.3,7.41,7.41,0,0,1-.1-2.1c.1-.4.1-.4.4-.4Z"/><path class="cls-2" d="M20.1,8.1v.4a.1.1,0,1,1-.2,0c-.1-.2-.3-.4-.4-.6a6.89,6.89,0,0,0-1.3-1.1,1.69,1.69,0,0,0-.5-.2,18.61,18.61,0,0,0-2.36.07A4.88,4.88,0,0,0,14.6,7a8.26,8.26,0,0,1-2.2.8,3.29,3.29,0,0,1-2.2-.5,1.78,1.78,0,0,1-.9-1.2c-.3-.6-.5-1.3-.8-2a2,2,0,0,1-.1-.7,1.11,1.11,0,0,1,.4-1.1,1.79,1.79,0,0,1,1.8-.5,1.61,1.61,0,0,1,.7.4,1.79,1.79,0,0,0,.7.5,2,2,0,0,0,1.7.2,2.62,2.62,0,0,1,1.5-.2c.3.1.5.2.8.3.9.3,1.7.7,2.6,1a2,2,0,0,1,1.3,1.4C19.9,6.2,20.1,7.1,20.1,8.1Z"/></g></g></g></g></svg>